<svg width="123" height="123" viewBox="0 0 123 123" fill="none" xmlns="http://www.w3.org/2000/svg">
<g filter="url(#filter0_d_207_131)">
<path d="M4.64673 24.2193C4.64673 11.6484 14.8374 1.4577 27.4083 1.4577H95.6931C108.264 1.4577 118.455 11.6484 118.455 24.2193V92.5041C118.455 105.075 108.264 115.266 95.6931 115.266H27.4083C14.8374 115.266 4.64673 105.075 4.64673 92.5041V24.2193Z" fill="#0073BA"/>
<g clip-path="url(#clip0_207_131)">
<path d="M79.5443 33.0554C75.3884 30.4658 71.4832 29.453 67.557 26.8738C65.1345 25.224 61.7618 21.3188 58.9425 17.946C58.3995 23.3549 56.7497 25.5477 54.8702 27.114C50.8814 30.2466 48.3753 31.1863 44.9295 33.0659C42.0267 34.5486 26.2908 43.9463 26.2908 64.1513C26.2908 84.3563 43.2901 99.236 62.1586 99.236C81.027 99.236 97.3999 85.5362 97.3999 64.7778C97.3999 44.0194 82.0503 34.6217 79.5443 33.0554Z" fill="#00598E"/>
<path d="M73.1749 81.6844C74.4279 81.6844 75.7645 81.7679 76.7042 82.3944C77.644 83.0209 78.187 84.4306 78.5002 85.2137C78.8135 85.9968 78.5002 86.4667 77.8737 86.78C77.3307 87.0932 77.2472 86.9366 76.7042 85.9238C76.1612 84.9109 75.6809 83.8876 72.9452 83.8876C70.2094 83.8876 69.3427 84.8274 68.0166 85.9238C66.6905 87.0201 66.2206 87.4065 65.7403 86.78C65.26 86.1535 65.427 85.527 66.2833 84.7438C67.1395 83.9607 68.5596 82.7077 69.8857 82.1542C71.2118 81.6008 71.9219 81.6844 73.1749 81.6844ZM60.1852 90.6122C61.7515 91.8652 64.1009 92.8885 69.113 92.8885C74.1251 92.8885 77.644 91.4684 79.2103 90.2989C79.9203 89.7559 80.2336 90.2154 80.3066 90.5286C80.3797 90.8419 80.5364 91.3118 79.9934 91.8652C79.5966 92.262 76.0046 94.768 71.7652 95.1544C67.5259 95.5407 61.8246 95.7809 58.3788 92.6483C57.8358 92.1053 57.982 91.3118 58.3788 90.9985C58.7756 90.6852 59.0889 90.4555 59.5483 90.4555C60.0077 90.4555 59.9451 90.4555 60.1852 90.6122Z" fill="white"/>
<path d="M40.9931 84.6591C46.9449 84.5756 48.0413 83.5627 53.2936 81.2133C81.6432 68.5265 86.8955 56.936 87.9084 54.2733C88.9212 51.6106 90.4144 47.2981 88.8481 42.5262C88.5453 41.6073 88.326 40.8659 88.1694 40.2708C84.3999 36.0627 80.6617 33.755 79.534 33.0554C75.4616 30.4658 71.4624 29.453 67.5467 26.8738C65.1242 25.3076 61.7515 21.3188 58.9322 17.946C58.3892 23.3549 56.8229 25.6208 54.8598 27.114C50.8711 30.2466 48.365 31.1863 44.9192 33.0659C42.0164 34.6217 26.27 43.9359 26.27 64.1409C26.27 70.5939 28.0034 76.504 30.9793 81.5579L31.752 81.5266C33.3914 83.0093 35.981 84.7427 40.9931 84.6591Z" fill="#0073BA"/>
<path d="M79.5235 33.0554C75.4512 30.4658 71.4624 29.453 67.5363 26.8738C65.1138 25.3076 61.741 21.3188 58.9217 17.946C58.3788 23.3549 56.8125 25.6208 54.8494 27.114C50.8606 30.2466 48.3546 31.1863 44.9088 33.0659C42.0164 34.6217 26.27 43.9358 26.27 64.1409C26.27 70.5939 28.0034 76.504 30.9793 81.5579C37.3175 92.3339 49.2943 99.2255 62.1378 99.2255C81.0167 99.2255 97.3791 85.5258 97.3791 64.7674C97.3791 53.3753 92.7534 45.3977 88.159 40.2708C84.3895 36.0522 80.6513 33.755 79.5235 33.0554ZM89.0465 42.2129C94.1839 48.6451 96.7944 56.2259 96.7944 64.7674C96.7944 69.7168 95.8546 74.3948 93.996 78.6759C92.2313 82.7274 89.6939 86.3194 86.4465 89.358C80.0248 95.3516 71.3998 98.6512 62.1483 98.6512C57.5747 98.6512 53.0847 97.7741 48.8036 96.0512C44.5955 94.3596 40.8155 91.9371 37.5472 88.8463C30.6452 82.3306 26.8548 73.5594 26.8548 64.1409C26.8548 55.756 29.5801 48.3005 34.9472 41.9832C39.0509 37.1591 43.4782 34.486 45.1802 33.5671C46.0156 33.1181 46.7883 32.7108 47.5401 32.3245C49.9 31.1132 52.1345 29.9646 55.2044 27.563C56.8438 26.3204 58.5876 24.3469 59.329 19.3453C61.9186 22.4256 64.9154 25.8819 67.2126 27.3646C69.2487 28.7116 71.3371 29.6514 73.3524 30.5598C75.2633 31.4161 77.2368 32.3141 79.1894 33.5566L79.2625 33.5984C84.9951 37.1591 88.0441 40.9704 89.0465 42.2129Z" fill="#004975"/>
<path d="M59.3185 19.5031C60.4149 22.7192 60.2583 24.3586 60.2583 25.0582C60.2583 25.7578 59.8615 27.6477 58.6085 28.5875C58.0655 28.9843 57.8984 29.2976 57.8984 29.3706C57.8984 29.6839 58.6085 29.9136 58.6085 30.6237C58.6085 31.4799 58.2117 33.2133 54.0663 37.3587C49.9208 41.5041 43.9585 45.1901 39.3432 47.4664C34.7279 49.7427 32.5351 49.5757 31.9086 48.4793C31.2821 47.3829 32.1383 44.9499 35.0412 41.7443C37.944 38.5386 47.1015 33.9129 47.1015 33.9129L58.5354 25.9248L59.1619 22.8758" fill="#93C5E4"/>
<path d="M59.3185 19.4196C58.6085 24.5883 57.0422 26.1546 54.9329 27.794C51.4036 30.4566 47.9578 32.096 47.1851 32.4928C45.1489 33.5161 37.7874 37.5884 33.9448 43.4567C32.7753 45.2527 33.9448 45.9628 34.1745 46.1194C34.4042 46.276 37.0773 46.5893 42.789 43.1435C48.5007 39.6977 51.0172 37.6719 54.2333 34.3097C55.9562 32.5137 56.1964 31.4904 56.1964 31.0205C56.1964 30.4775 55.7996 30.2373 55.1731 30.0807C54.8598 29.9972 54.7763 29.851 55.1731 29.6108C55.5699 29.3707 57.1988 28.5875 57.5956 28.2743C57.9924 27.961 59.8719 26.708 59.945 24.6718C60.0181 22.6357 59.8719 21.226 59.3185 19.4196ZM41.7031 76.359C41.7866 70.2505 47.4983 64.5388 54.7032 64.4553C63.8712 64.3718 70.2094 73.5397 74.8352 73.4562C78.7509 73.3726 86.269 65.7083 89.955 65.7083C93.8707 65.7083 94.9671 69.7806 94.9671 72.2032C94.9671 74.6257 94.184 79.0112 92.3044 81.7575C90.4249 84.5037 89.2554 85.5165 87.0626 85.3599C84.2433 85.1302 78.6047 76.359 75.0022 76.1919C70.46 76.0353 60.5924 85.6731 52.8446 85.6731C48.1457 85.6731 46.7361 84.9631 45.1698 83.9502C42.789 82.3109 41.6195 79.8048 41.7031 76.359Z" fill="white"/>
</g>
</g>
<defs>
<filter id="filter0_d_207_131" x="0.646729" y="0.457703" width="121.808" height="121.808" filterUnits="userSpaceOnUse" color-interpolation-filters="sRGB">
<feFlood flood-opacity="0" result="BackgroundImageFix"/>
<feColorMatrix in="SourceAlpha" type="matrix" values="0 0 0 0 0 0 0 0 0 0 0 0 0 0 0 0 0 0 127 0" result="hardAlpha"/>
<feOffset dy="3"/>
<feGaussianBlur stdDeviation="2"/>
<feComposite in2="hardAlpha" operator="out"/>
<feColorMatrix type="matrix" values="0 0 0 0 0 0 0 0 0 0 0 0 0 0 0 0 0 0 0.05 0"/>
<feBlend mode="normal" in2="BackgroundImageFix" result="effect1_dropShadow_207_131"/>
<feBlend mode="normal" in="SourceGraphic" in2="effect1_dropShadow_207_131" result="shape"/>
</filter>
<clipPath id="clip0_207_131">
<rect width="71.13" height="82.4027" fill="white" transform="translate(26.27 17.3908)"/>
</clipPath>
</defs>
</svg>
