<svg width="123" height="123" viewBox="0 0 123 123" fill="none" xmlns="http://www.w3.org/2000/svg">
<g filter="url(#filter0_d_207_97)">
<path d="M4.62805 24.2452C4.62805 11.6743 14.8188 1.48358 27.3896 1.48358H95.6744C108.245 1.48358 118.436 11.6743 118.436 24.2452V92.53C118.436 105.101 108.245 115.292 95.6744 115.292H27.3896C14.8188 115.292 4.62805 105.101 4.62805 92.53V24.2452Z" fill="#F2F2F2"/>
<g clip-path="url(#clip0_207_97)">
<path d="M97.2782 32.4173C97.2782 27.2481 93.0877 23.0576 87.9185 23.0576C83.1986 23.0576 79.2967 26.5519 78.6539 31.0944L78.5591 31.0443C70.9047 27.592 64.457 33.7069 64.457 33.7069L47.402 50.8455L54.1408 57.3351L67.8682 43.8486C74.2784 37.4381 77.7688 41.7769 77.7688 41.7769C82.5943 45.8535 77.9349 50.679 77.9349 50.679L84.8404 57.3351C90.4794 51.2447 90.8064 45.9293 89.0923 41.7011C93.7073 41.1233 97.2782 37.1886 97.2782 32.4173Z" fill="#F9AE41"/>
<path d="M89.1792 75.4627C89.2112 75.4029 89.2292 75.3682 89.2292 75.3682C92.6818 67.7135 86.5667 61.2658 86.5667 61.2658L69.4278 44.2103L62.9385 50.9496L76.425 64.6767C82.8352 71.0872 78.4963 74.5778 78.4963 74.5778C74.42 79.4034 69.5945 74.744 69.5945 74.744L62.9385 81.6492C69.0286 87.2881 74.3442 87.6151 78.5722 85.901C79.15 90.516 83.0849 94.0872 87.8563 94.0872C93.0255 94.0872 97.2157 89.8968 97.2157 84.7276C97.2157 80.0076 93.7217 76.1058 89.1792 75.4627Z" fill="#EE4035"/>
<path d="M69.5737 59.4977L55.8463 72.9839C49.4359 79.3947 45.9455 75.0561 45.9455 75.0561C41.1199 70.9793 45.7791 66.154 45.7791 66.154L38.8741 59.4977C33.2352 65.5878 32.9079 70.9032 34.6217 75.1314C30.0067 75.7095 26.4358 79.6439 26.4358 84.4155C26.4358 89.5847 30.6263 93.7749 35.7957 93.7749C40.5157 93.7752 44.4175 90.2812 45.0604 85.7387C45.1204 85.7707 45.1551 85.7885 45.1551 85.7885C52.8099 89.2416 59.2573 83.1259 59.2573 83.1259L76.3125 65.987L69.5737 59.4977Z" fill="#4F91CD"/>
<path d="M47.2894 52.1562C40.8789 45.7457 45.2172 42.2551 45.2172 42.2551C49.2943 37.4295 54.1196 42.0889 54.1196 42.0889L60.7756 35.184C54.6855 29.545 49.3702 29.2181 45.1419 30.9319C44.5641 26.3166 40.6297 22.7457 35.8575 22.7457C30.6892 22.7457 26.499 26.9361 26.4984 32.1053C26.4984 36.8256 29.9924 40.7274 34.5352 41.3703C34.5032 41.4303 34.4854 41.4653 34.4854 41.4653C31.0323 49.1195 37.1477 55.5668 37.1477 55.5668L54.2868 72.6224L60.7762 65.8836L47.2896 52.1562" fill="#7AC043"/>
</g>
</g>
<defs>
<filter id="filter0_d_207_97" x="0.628052" y="0.483582" width="121.808" height="121.808" filterUnits="userSpaceOnUse" color-interpolation-filters="sRGB">
<feFlood flood-opacity="0" result="BackgroundImageFix"/>
<feColorMatrix in="SourceAlpha" type="matrix" values="0 0 0 0 0 0 0 0 0 0 0 0 0 0 0 0 0 0 127 0" result="hardAlpha"/>
<feOffset dy="3"/>
<feGaussianBlur stdDeviation="2"/>
<feComposite in2="hardAlpha" operator="out"/>
<feColorMatrix type="matrix" values="0 0 0 0 0 0 0 0 0 0 0 0 0 0 0 0 0 0 0.05 0"/>
<feBlend mode="normal" in2="BackgroundImageFix" result="effect1_dropShadow_207_97"/>
<feBlend mode="normal" in="SourceGraphic" in2="effect1_dropShadow_207_97" result="shape"/>
</filter>
<clipPath id="clip0_207_97">
<rect width="71.13" height="71.6747" fill="white" transform="translate(26.2516 22.5381)"/>
</clipPath>
</defs>
</svg>
