<svg width="123" height="123" viewBox="0 0 123 123" fill="none" xmlns="http://www.w3.org/2000/svg">
<g filter="url(#filter0_d_209_194)">
<path d="M4.61279 24.7445C4.61279 12.1736 14.8035 1.98291 27.3744 1.98291H95.6592C108.23 1.98291 118.421 12.1736 118.421 24.7445V93.0293C118.421 105.6 108.23 115.791 95.6592 115.791H27.3744C14.8035 115.791 4.61279 105.6 4.61279 93.0293V24.7445Z" fill="#FF2D20"/>
<g clip-path="url(#clip0_209_194)">
<path d="M97.1998 42.6389C97.2261 42.7362 97.2396 42.8365 97.2398 42.9374V58.6055C97.2398 58.8066 97.1867 59.0041 97.0857 59.1782C96.9848 59.3522 96.8397 59.4965 96.665 59.5965L83.4964 67.1679V82.1748C83.4964 82.5833 83.2791 82.9603 82.9244 83.1659L55.4362 98.9683C55.3733 99.004 55.3047 99.0268 55.236 99.0511C55.2103 99.0597 55.186 99.0754 55.1588 99.0825C54.9667 99.133 54.7647 99.133 54.5725 99.0825C54.5411 99.0739 54.5125 99.0568 54.4824 99.0454C54.4195 99.0225 54.3537 99.0025 54.2937 98.9683L26.8112 83.1659C26.6366 83.0657 26.4915 82.9214 26.3906 82.7474C26.2897 82.5734 26.2365 82.3759 26.2363 82.1748V35.1704C26.2363 35.0676 26.2506 34.9676 26.2764 34.8705C26.2849 34.8377 26.305 34.8077 26.3164 34.7748C26.3379 34.7149 26.3579 34.6535 26.3893 34.5978C26.4108 34.5606 26.4422 34.5306 26.468 34.4964C26.5009 34.4507 26.5309 34.4036 26.5695 34.3636C26.6024 34.3307 26.6453 34.3064 26.6825 34.2779C26.7239 34.2436 26.7611 34.2065 26.8083 34.1794H26.8097L40.5517 26.2782C40.7257 26.1782 40.9229 26.1255 41.1237 26.1255C41.3244 26.1255 41.5217 26.1782 41.6957 26.2782L55.4377 34.1794H55.4405C55.4863 34.2079 55.5249 34.2436 55.5663 34.2765C55.6035 34.305 55.645 34.3307 55.6779 34.3621C55.7179 34.4036 55.7465 34.4507 55.7808 34.4964C55.8052 34.5306 55.838 34.5606 55.8581 34.5978C55.891 34.6549 55.9095 34.7149 55.9324 34.7748C55.9439 34.8077 55.9639 34.8377 55.9725 34.8719C55.9988 34.9693 56.0122 35.0696 56.0125 35.1704V64.5289L67.4637 57.9443V42.9359C67.4637 42.836 67.478 42.7346 67.5037 42.6389C67.5137 42.6046 67.5323 42.5746 67.5437 42.5418C67.5666 42.4818 67.5866 42.4204 67.6181 42.3647C67.6395 42.3276 67.671 42.2976 67.6953 42.2633C67.7296 42.2176 67.7582 42.1705 67.7983 42.1305C67.8312 42.0977 67.8726 42.0734 67.9098 42.0448C67.9527 42.0106 67.9899 41.9734 68.0356 41.9463H68.0371L81.7805 34.0451C81.9544 33.945 82.1517 33.8923 82.3525 33.8923C82.5532 33.8923 82.7505 33.945 82.9244 34.0451L96.6664 41.9463C96.715 41.9749 96.7522 42.0106 96.7951 42.0434C96.8309 42.072 96.8723 42.0977 96.9052 42.1291C96.9453 42.1705 96.9739 42.2176 97.0082 42.2633C97.0339 42.2976 97.0654 42.3276 97.0854 42.3647C97.1183 42.4204 97.1369 42.4818 97.1598 42.5418C97.1726 42.5746 97.1912 42.6046 97.1998 42.6389ZM94.949 57.9443V44.9152L90.14 47.6798L83.4964 51.4997V64.5289L94.9505 57.9443H94.949ZM81.2071 81.5137V68.4759L74.6721 72.203L56.0111 82.8389V95.9994L81.2071 81.5137ZM28.5271 37.1482V81.5137L53.7203 95.998V82.8403L40.5589 75.4018L40.5546 75.3989L40.5489 75.3961C40.5045 75.3704 40.4673 75.3332 40.4259 75.3018C40.3901 75.2733 40.3487 75.2504 40.3172 75.219L40.3143 75.2147C40.2772 75.179 40.2514 75.1347 40.22 75.0948C40.1914 75.0562 40.157 75.0234 40.1342 74.9834L40.1327 74.9791C40.107 74.9362 40.0913 74.8848 40.0727 74.8363C40.0541 74.7934 40.0298 74.7535 40.0183 74.7078V74.7063C40.004 74.6521 40.0012 74.595 39.9955 74.5393C39.9897 74.4964 39.9783 74.4536 39.9783 74.4107V43.7328L33.3361 39.9114L28.5271 37.1496V37.1482ZM41.1251 28.5887L29.6754 35.1704L41.1223 41.7521L52.5706 35.169L41.1223 28.5887H41.1251ZM47.0795 69.664L53.7217 65.8455V37.1482L48.9127 39.9128L42.2691 43.7328V72.4301L47.0795 69.664ZM82.3525 36.3556L70.9042 42.9374L82.3525 49.5191L93.7993 42.9359L82.3525 36.3556ZM81.2071 51.4997L74.5634 47.6798L69.7545 44.9152V57.9443L76.3967 61.7628L81.2071 64.5289V51.4997ZM54.8642 80.8611L71.6563 71.2877L80.0502 66.5038L68.6105 59.9264L55.4391 67.4992L43.4345 74.4007L54.8642 80.8611Z" fill="white"/>
</g>
</g>
<defs>
<filter id="filter0_d_209_194" x="0.612793" y="0.98291" width="121.808" height="121.808" filterUnits="userSpaceOnUse" color-interpolation-filters="sRGB">
<feFlood flood-opacity="0" result="BackgroundImageFix"/>
<feColorMatrix in="SourceAlpha" type="matrix" values="0 0 0 0 0 0 0 0 0 0 0 0 0 0 0 0 0 0 127 0" result="hardAlpha"/>
<feOffset dy="3"/>
<feGaussianBlur stdDeviation="2"/>
<feComposite in2="hardAlpha" operator="out"/>
<feColorMatrix type="matrix" values="0 0 0 0 0 0 0 0 0 0 0 0 0 0 0 0 0 0 0.05 0"/>
<feBlend mode="normal" in2="BackgroundImageFix" result="effect1_dropShadow_209_194"/>
<feBlend mode="normal" in="SourceGraphic" in2="effect1_dropShadow_209_194" result="shape"/>
</filter>
<clipPath id="clip0_209_194">
<rect width="71.13" height="73.4417" fill="white" transform="translate(26.2363 25.8826)"/>
</clipPath>
</defs>
</svg>
