<?xml version="1.0" encoding="UTF-8"?>
<svg fill="none" viewBox="0 0 1204 1052" xmlns="http://www.w3.org/2000/svg">
<g clip-path="url(#c)">
<mask id="a" x="0" y="0" width="1204" height="1052" style="mask-type:luminance" maskUnits="userSpaceOnUse">
<path d="m0 72c0-39.764 31.917-72 71.29-72h1061.4c39.37 0 71.29 32.235 71.29 72v908c0 39.76-31.92 72-71.29 72h-1061.4c-39.372 0-71.29-32.24-71.29-72v-908z" fill="#fff"/>
</mask>
<g mask="url(#a)">
<g filter="url(#b)">
<g style="mix-blend-mode:multiply">
<path d="m-1120.8 344.74c0-128.53 103.17-232.72 230.42-232.72h1288.7c127.26 0 230.42 104.19 230.42 232.72v816.93h-1519.1c-127.26 0-230.42-104.19-230.42-232.72v-584.21z" fill="#4299ED"/>
</g>
<g style="mix-blend-mode:multiply">
<path d="m-262.96-302.44c63.628-111.31 204.55-149.44 314.76-85.18l895.73 522.3c110.2 64.263 147.97 206.59 84.344 317.9l-404.44 707.48-1095.3-638.66c-110.21-64.264-147.97-206.59-84.339-317.9l289.22-505.94z" fill="#F567F0"/>
</g>
<g style="mix-blend-mode:multiply">
<path d="m1345.8-477.64c110.21-64.262 251.13-26.126 314.76 85.182l293.77 513.89c63.63 111.31 25.86 253.63-84.34 317.9l-1240.1 723.08-408.98-715.43c-63.63-111.31-25.87-253.63 84.339-317.9l1040.5-606.72z" fill="#F7C406"/>
</g>
<g style="mix-blend-mode:multiply">
<path d="m1839.2 576.96c127.26 0 230.42 104.19 230.42 232.72v119.6c0 128.52-103.16 232.71-230.42 232.71h-1210.9v-352.32c0-128.53 103.16-232.72 230.42-232.72h980.52z" fill="#F567F0"/>
</g>
</g>
</g>
<g opacity=".25" stroke="#1A100B" stroke-width="5" style="mix-blend-mode:overlay">
<path d="m965.26 1816.5-2e-3 -2536.4"/>
<path d="m-654 894.77h2512.2"/>
<path d="m-654 527.38h2512.2"/>
<path d="m-654 343.96h2512.2"/>
<path d="m-654 158.56h2512.2"/>
<path d="m-654 710.81h2512.2"/>
<path d="M600.141 1811.42V-725"/>
<path d="m419.09 1811.4-2e-3 -2536.4"/>
<path d="M238.033 1811.42V-725"/>
<path d="M783.676 1811.42V-725"/>
<path d="m-322.17 1459 1776.4-1793.5"/>
<path d="m1492 1424-1776.4-1793.5"/>
<path d="m328.32 159.46c49.38 0 89.41 40.417 89.41 90.274 0 49.856-40.03 90.273-89.41 90.273s-89.412-40.417-89.412-90.273c0-49.857 40.032-90.274 89.412-90.274z" stroke-miterlimit="10"/>
<path d="m511.05 159.46c49.379 0 89.41 40.417 89.41 90.274 0 49.856-40.031 90.273-89.41 90.273-49.38 0-89.41-40.417-89.41-90.273 0-49.857 40.03-90.274 89.41-90.274z" stroke-miterlimit="10"/>
<path d="m602.42 159.46c200.75 0 363.5 164.87 363.5 368.27 0 203.4-162.75 368.27-363.5 368.27-200.75 0-363.5-164.87-363.5-368.27 0-203.4 162.75-368.27 363.5-368.27z" stroke-miterlimit="10"/>
<path d="m602.42 11.365c281.76 0 510.18 231.18 510.18 516.37s-228.42 516.37-510.18 516.37c-281.76 0-510.18-231.18-510.18-516.37s228.42-516.37 510.18-516.37z" stroke-miterlimit="10"/>
<path d="m693.78 159.46c49.38 0 89.41 40.417 89.41 90.274 0 49.856-40.03 90.273-89.41 90.273-49.379 0-89.41-40.417-89.41-90.273 0-49.857 40.031-90.274 89.41-90.274z" stroke-miterlimit="10"/>
<path d="m876.51 159.46c49.379 0 89.41 40.417 89.41 90.274 0 49.856-40.031 90.273-89.41 90.273-49.38 0-89.41-40.417-89.41-90.273 0-49.857 40.03-90.274 89.41-90.274z" stroke-miterlimit="10"/>
<path d="m328.32 343.96c49.38 0 89.41 40.419 89.41 90.276 0 49.856-40.03 90.274-89.41 90.274s-89.412-40.418-89.412-90.274c0-49.857 40.032-90.276 89.412-90.276z" stroke-miterlimit="10"/>
<path d="m511.05 343.96c49.379 0 89.41 40.419 89.41 90.276 0 49.856-40.031 90.274-89.41 90.274-49.38 0-89.41-40.418-89.41-90.274 0-49.857 40.03-90.276 89.41-90.276z" stroke-miterlimit="10"/>
<path d="m693.78 343.96c49.38 0 89.41 40.419 89.41 90.276 0 49.856-40.03 90.274-89.41 90.274-49.379 0-89.41-40.418-89.41-90.274 0-49.857 40.031-90.276 89.41-90.276z" stroke-miterlimit="10"/>
<path d="m876.51 343.96c49.379 0 89.41 40.419 89.41 90.276 0 49.856-40.031 90.274-89.41 90.274-49.38 0-89.41-40.418-89.41-90.274 0-49.857 40.03-90.276 89.41-90.276z" stroke-miterlimit="10"/>
<path d="m328.32 528.45c49.38 0 89.41 40.417 89.41 90.274 0 49.859-40.03 90.276-89.41 90.276s-89.412-40.417-89.412-90.276c0-49.857 40.032-90.274 89.412-90.274z" stroke-miterlimit="10"/>
<path d="m511.05 528.45c49.379 0 89.41 40.417 89.41 90.274 0 49.859-40.031 90.276-89.41 90.276-49.38 0-89.41-40.417-89.41-90.276 0-49.857 40.03-90.274 89.41-90.274z" stroke-miterlimit="10"/>
<path d="m693.78 528.45c49.38 0 89.41 40.417 89.41 90.274 0 49.859-40.03 90.276-89.41 90.276-49.379 0-89.41-40.417-89.41-90.276 0-49.857 40.031-90.274 89.41-90.274z" stroke-miterlimit="10"/>
<path d="m876.51 528.45c49.379 0 89.41 40.417 89.41 90.274 0 49.859-40.031 90.276-89.41 90.276-49.38 0-89.41-40.417-89.41-90.276 0-49.857 40.03-90.274 89.41-90.274z" stroke-miterlimit="10"/>
<path d="m328.32 712.94c49.38 0 89.41 40.417 89.41 90.274s-40.03 90.274-89.41 90.274-89.412-40.417-89.412-90.274 40.032-90.274 89.412-90.274z" stroke-miterlimit="10"/>
<path d="m511.05 712.94c49.379 0 89.41 40.417 89.41 90.274s-40.031 90.274-89.41 90.274c-49.38 0-89.41-40.417-89.41-90.274s40.03-90.274 89.41-90.274z" stroke-miterlimit="10"/>
<path d="m693.78 712.94c49.38 0 89.41 40.417 89.41 90.274s-40.03 90.274-89.41 90.274c-49.379 0-89.41-40.417-89.41-90.274s40.031-90.274 89.41-90.274z" stroke-miterlimit="10"/>
<path d="m876.51 712.94c49.379 0 89.41 40.417 89.41 90.274s-40.031 90.274-89.41 90.274c-49.38 0-89.41-40.417-89.41-90.274s40.03-90.274 89.41-90.274z" stroke-miterlimit="10"/>
</g>
</g>
<defs>
<filter id="b" x="-1220.8" y="-608.86" width="3390.5" height="1871.3" color-interpolation-filters="sRGB" filterUnits="userSpaceOnUse">
<feFlood flood-opacity="0" result="BackgroundImageFix"/>
<feBlend in="SourceGraphic" in2="BackgroundImageFix" result="shape"/>
<feGaussianBlur result="effect1_foregroundBlur_6931_1675" stdDeviation="50"/>
</filter>
<clipPath id="c">
<rect width="1204" height="1052" fill="#fff"/>
</clipPath>
</defs>
</svg>
