<svg width="123" height="123" viewBox="0 0 123 123" fill="none" xmlns="http://www.w3.org/2000/svg">
<g filter="url(#filter0_d_208_95)">
<mask id="mask0_208_95" style="mask-type:alpha" maskUnits="userSpaceOnUse" x="4" y="1" width="115" height="115">
<path d="M4.85156 24.4332C4.85156 11.8623 15.0423 1.67157 27.6132 1.67157H95.8979C108.469 1.67157 118.66 11.8623 118.66 24.4332V92.718C118.66 105.289 108.469 115.48 95.8979 115.48H27.6132C15.0423 115.48 4.85156 105.289 4.85156 92.718V24.4332Z" fill="#F2F2F2"/>
</mask>
<g mask="url(#mask0_208_95)">
<g clip-path="url(#clip0_208_95)">
<path d="M35.1833 97.9435C36.351 97.4237 37.5341 96.9455 38.728 96.4971C40.0762 95.9904 41.4352 95.5139 42.8125 95.0992C44.5269 94.5828 46.2555 94.1155 48.0076 93.7436C50.3717 93.2408 52.7622 92.8713 55.1678 92.6371C53.808 96.902 52.3205 101.125 50.7074 105.301C50.7739 106.116 50.8166 106.933 50.8354 107.75C54.1509 107.095 57.5225 106.764 60.9022 106.764C64.3474 106.764 67.7116 107.108 70.9689 107.75C70.9878 106.933 71.0304 106.116 71.0969 105.301C69.4835 101.125 67.9961 96.9021 66.6365 92.6371C69.0444 92.8707 71.4345 93.242 73.7967 93.7436C75.5482 94.1155 77.2768 94.5828 78.9912 95.0992C80.3691 95.5139 81.7281 95.9904 83.0763 96.4971C84.2708 96.9461 85.4545 97.4243 86.6221 97.9441C95.0631 101.697 102.583 107.248 108.656 114.209C124.183 100.8 134.024 80.9856 134.024 58.86C134.024 18.4763 101.286 -14.2616 60.9022 -14.2616C20.5184 -14.2616 -12.2195 18.4763 -12.2195 58.86C-12.2195 80.9856 -2.37834 100.8 13.1486 114.209C19.2219 107.247 26.742 101.697 35.1833 97.9435Z" fill="#A5DBE8"/>
<path d="M86.6221 97.9441L91.1614 113.553L92.449 113.613C93.2848 113.613 93.8726 113.833 93.8726 114.669C93.8726 116.058 93.9446 117.62 94.0777 118.983C95.2088 119.943 96.5861 121.026 97.6304 122.078C101.541 119.801 105.231 117.167 108.656 114.209C102.583 107.248 95.0631 101.697 86.6221 97.9441ZM77.7464 97.7882L83.0763 96.4971C81.7281 95.9904 80.3691 95.514 78.9912 95.0992C77.2768 94.5828 75.5482 94.1155 73.7967 93.7436C71.4326 93.2408 69.0421 92.8714 66.6365 92.6371C67.9961 96.9021 69.4835 101.125 71.0969 105.301C71.0304 106.116 70.9877 106.933 70.9689 107.75C74.7456 108.495 78.4588 109.79 81.8921 111.308L77.7464 97.7882Z" fill="#525353"/>
<path d="M24.1738 122.078C25.0227 122.573 25.8802 123.056 26.7519 123.517C27.057 122.051 27.5448 120.021 27.6922 118.514C26.5611 119.474 25.2181 121.026 24.1738 122.078ZM81.8028 111.173C78.3293 109.635 74.6957 108.487 70.9688 107.75C67.6533 107.095 64.2817 106.765 60.902 106.764C57.4562 106.764 54.0926 107.108 50.8352 107.75C47.0592 108.495 43.1192 109.624 39.687 111.142L39.322 113.416H82.4832L81.8028 111.173Z" fill="black"/>
<path d="M27.5585 118.947C27.6922 117.584 27.7888 116.369 27.7888 114.979C27.7888 114.143 28.3617 113.608 29.1975 113.608L30.568 113.56L35.1832 97.9435C26.7418 101.697 19.2218 107.248 13.1484 114.209C16.5728 117.167 20.2636 119.801 24.1738 122.078C25.218 121.025 26.3067 120.017 27.4369 119.056" fill="#525353"/>
<path d="M81.8028 111.173L82.4832 113.416H91.3114L86.6219 97.9441C85.4546 97.4269 84.2721 96.9443 83.0762 96.4971L77.7463 97.7882L81.8028 111.173Z" fill="#AA9678"/>
<path d="M60.9021 114.929H60.9026V116.443H60.9021V114.929Z" fill="#786453"/>
<path d="M83.5207 104.652L83.5362 104.7L83.5207 104.652C83.5207 104.652 82.7793 104.065 81.8384 102.982C82.7793 104.065 83.5207 104.652 83.5207 104.652Z" fill="#AA9678"/>
<path d="M105.864 38.4934V38.4968V38.4934ZM108.806 59.5462L108.807 59.5245L108.806 59.5462Z" fill="white"/>
<path d="M108.807 59.526L108.807 59.5044L108.807 59.526Z" fill="#BBBCBD"/>
<path d="M108.725 58.3853C108.727 58.4048 108.733 58.4219 108.735 58.4413C108.737 58.4533 108.74 58.4642 108.742 58.4756V58.4802C108.777 58.7595 108.79 59.0514 108.796 59.3456C108.797 59.3999 108.806 59.4508 108.806 59.5045L108.807 59.5244L108.806 59.5462C108.806 59.6044 108.796 59.6587 108.796 59.7164C108.792 60.0001 108.774 60.2834 108.742 60.5653V60.5693L108.735 60.611C108.732 60.6333 108.725 60.6533 108.723 60.675C108.684 60.9663 108.629 61.2553 108.559 61.5404L108.557 61.5444V61.545L108.568 61.5336L108.572 61.5204V61.521L110.485 59.5176L108.556 57.4982L108.557 57.5022C108.629 57.7838 108.684 58.0797 108.725 58.3853Z" fill="#676A6A"/>
<path d="M108.722 60.6749C108.728 60.6372 108.737 60.6035 108.742 60.5653C108.776 60.291 108.789 60.0048 108.796 59.7164C108.796 59.6512 108.806 59.5901 108.806 59.5244C108.806 59.4633 108.797 59.4062 108.796 59.3456C108.793 59.0564 108.775 58.7675 108.742 58.4801C108.737 58.447 108.729 58.4179 108.725 58.3853C108.686 58.0879 108.63 57.793 108.557 57.5021C108.532 57.4039 108.497 57.3165 108.468 57.2217C108.295 56.6492 108.059 56.1437 107.779 55.7238C107.672 55.5642 107.554 55.4116 107.428 55.2668C107.312 55.1389 107.186 55.0214 107.05 54.9155C107 54.8772 106.946 54.8503 106.895 54.8172C106.737 54.7136 106.567 54.6312 106.388 54.5721C106.219 54.5159 106.042 54.4855 105.864 54.4819C105.685 54.4819 105.511 54.5196 105.34 54.5721C105.161 54.631 104.99 54.7134 104.832 54.8172C104.782 54.8503 104.728 54.8766 104.679 54.9149C104.443 55.0984 104.237 55.3157 104.065 55.5598C104.025 55.6137 103.986 55.6685 103.949 55.7244C103.669 56.1442 103.433 56.6498 103.26 57.2222L103.238 57.2908C103.162 57.5536 103.102 57.83 103.053 58.114C103.038 58.2008 103.018 58.2842 103.006 58.3733C102.96 58.6909 102.937 59.0223 102.931 59.3616C102.931 59.4084 102.923 59.453 102.923 59.4998H102.935C102.935 62.2853 104.252 64.543 105.878 64.543C106.158 64.543 106.427 64.4698 106.683 64.3447C106.837 64.2693 106.982 64.1776 107.116 64.0711C107.172 64.0265 107.224 63.9728 107.277 63.9226C107.406 63.8015 107.53 63.6644 107.647 63.5118C107.728 63.405 107.808 63.2982 107.882 63.1788C107.93 63.1028 107.973 63.0205 108.017 62.9394C108.099 62.7875 108.177 62.6292 108.247 62.4613C108.273 62.4007 108.3 62.3419 108.324 62.2796C108.414 62.046 108.492 61.7992 108.559 61.5404C108.629 61.2645 108.681 60.9743 108.722 60.6749ZM105.97 58.8532C105.36 58.8532 104.866 58.006 104.866 56.9617C104.866 55.918 105.36 55.0708 105.97 55.0708C106.579 55.0708 107.073 55.918 107.073 56.9617C107.073 58.006 106.579 58.8532 105.97 58.8532Z" fill="black"/>
<path d="M105.97 55.0709C105.36 55.0709 104.866 55.9181 104.866 56.9618C104.866 58.006 105.36 58.8532 105.97 58.8532C106.579 58.8532 107.073 58.006 107.073 56.9618C107.073 55.9181 106.579 55.0709 105.97 55.0709Z" fill="white"/>
<path d="M103.26 57.2223C103.433 56.6499 103.669 56.1443 103.949 55.7244C103.987 55.6673 104.025 55.6142 104.065 55.5599C104.236 55.3154 104.443 55.0979 104.679 54.9149C104.728 54.8767 104.782 54.8504 104.832 54.8172C104.99 54.7132 105.161 54.6307 105.34 54.5722C105.51 54.5185 105.685 54.4819 105.864 54.4819C106.043 54.4819 106.218 54.5185 106.388 54.5722C106.567 54.6312 106.737 54.7136 106.895 54.8172C106.946 54.8504 107 54.8772 107.05 54.9155C107.181 55.016 107.307 55.1349 107.428 55.2668C107.555 55.4116 107.672 55.5642 107.779 55.7238C108.059 56.1437 108.295 56.6493 108.468 57.2217V57.2228L105.864 45.2965L103.26 57.2223H103.26Z" fill="#909393"/>
<path d="M71.3559 59.413C71.3525 59.1731 71.3371 58.936 71.3102 58.7029C71.3097 58.7001 71.3085 58.6966 71.3085 58.6932C71.2814 58.4652 71.2431 58.2387 71.1937 58.0146L71.1891 57.9974C71.1401 57.7787 71.0805 57.5625 71.0103 57.3496L71.0046 57.3353C70.9349 57.1242 70.8544 56.9167 70.7635 56.7138C70.7624 56.7098 70.7595 56.7058 70.7578 56.7012C70.0322 55.0863 68.7154 53.8107 67.0783 53.1366L67.0583 53.1291C66.66 52.9666 66.2472 52.8421 65.8255 52.7572C65.8146 52.7555 65.8043 52.7549 65.7935 52.7527C65.3583 52.6667 64.9158 52.6233 64.4721 52.623C64.0271 52.623 63.5947 52.6687 63.1737 52.7492L63.1291 52.7561C62.7104 52.8395 62.3065 52.9617 61.9186 53.1171L61.8877 53.1291C61.4955 53.2883 61.1189 53.4835 60.7629 53.7124C60.407 53.942 60.0728 54.2031 59.7655 54.4916L59.758 54.515L59.7323 54.5207C59.24 54.9891 58.8188 55.5268 58.4818 56.1168L58.4692 56.138C58.3664 56.3191 58.2733 56.5076 58.1876 56.6995C58.1785 56.7201 58.167 56.7395 58.1585 56.7601C58.0802 56.9377 58.0128 57.1217 57.95 57.3068C57.938 57.3433 57.922 57.3776 57.9105 57.4136C57.8557 57.5867 57.8111 57.7643 57.7689 57.942C57.758 57.9934 57.7415 58.0425 57.7306 58.0934C57.694 58.2693 57.6689 58.4493 57.6455 58.6298C57.6386 58.6852 57.6266 58.7383 57.6209 58.7938C57.5492 59.4778 57.5807 60.1688 57.7146 60.8434C57.7157 60.852 57.7163 60.8617 57.7186 60.8709C57.8049 61.301 57.9317 61.7158 58.0945 62.1128C58.0968 62.1185 58.0979 62.1242 58.1008 62.1294C58.4304 62.9266 58.9062 63.6551 59.5038 64.2773C59.9723 64.7657 60.5115 65.1845 61.1045 65.5192L61.1131 65.5244C61.2982 65.6283 61.4896 65.722 61.6844 65.8089C61.7004 65.8157 61.7158 65.8248 61.7323 65.8317C61.9129 65.9105 62.0997 65.9785 62.2876 66.0419C62.3196 66.0528 62.3505 66.0665 62.3824 66.0768C62.5561 66.1322 62.7355 66.1768 62.9149 66.2179C62.9634 66.2293 63.0103 66.2453 63.0594 66.2556C63.2336 66.2916 63.413 66.3161 63.5935 66.3396C63.6478 66.3458 63.7015 66.3584 63.7569 66.3641C65.3658 66.5336 66.9829 66.1303 68.3236 65.225C69.0572 64.7294 69.6889 64.0978 70.1848 63.3644C70.9531 62.2268 71.363 60.8851 71.3617 59.5124C71.3617 59.4958 71.3594 59.4804 71.3594 59.465C71.3588 59.4473 71.3565 59.4307 71.3559 59.413ZM64.4721 58.6058C64.1323 58.6058 63.7957 58.5388 63.4817 58.4087C63.1677 58.2786 62.8824 58.0879 62.6421 57.8476C62.4018 57.6072 62.2112 57.3219 62.0812 57.0079C61.9512 56.6939 61.8843 56.3573 61.8843 56.0174C61.8843 55.6776 61.9513 55.341 62.0814 55.027C62.2115 54.713 62.4022 54.4277 62.6425 54.1874C62.8829 53.9471 63.1682 53.7565 63.4823 53.6265C63.7963 53.4965 64.1328 53.4296 64.4727 53.4296C65.1591 53.4297 65.8174 53.7024 66.3027 54.1878C66.788 54.6733 67.0606 55.3316 67.0606 56.018C67.0605 56.7044 66.7877 57.3627 66.3023 57.848C65.8169 58.3333 65.1586 58.6059 64.4721 58.6058Z" fill="black"/>
<path d="M64.4721 53.4296C63.7858 53.4296 63.1275 53.7023 62.6422 54.1876C62.1569 54.6729 61.8843 55.3311 61.8843 56.0174C61.8843 56.7038 62.1569 57.362 62.6422 57.8473C63.1275 58.3326 63.7858 58.6053 64.4721 58.6053C65.1584 58.6053 65.8167 58.3326 66.302 57.8473C66.7873 57.362 67.0599 56.7038 67.0599 56.0174C67.0599 55.3311 66.7873 54.6729 66.302 54.1876C65.8167 53.7023 65.1584 53.4296 64.4721 53.4296Z" fill="white"/>
<path d="M59.7321 54.5206L59.7578 54.5149L59.7652 54.4915L64.5102 39.9803V36.5842L64.5096 36.5459C61.8315 35.9915 59.104 35.7101 56.3691 35.7062C55.4408 35.7062 54.5199 35.7456 53.6047 35.8079C53.4716 35.817 53.338 35.825 53.2043 35.8353C48.4417 36.1969 43.7516 37.4382 39.4089 39.4205C35.6848 41.1212 32.2247 43.3611 29.1141 46.0169V46.0174L29.109 46.022C28.2767 46.7347 27.4705 47.4772 26.692 48.2482C26.5457 48.391 26.3972 48.5327 26.2527 48.6778C25.5167 49.4201 24.8047 50.1858 24.1179 50.9737C23.9688 51.1456 23.822 51.321 23.6746 51.4947C22.9814 52.3079 22.3142 53.1429 21.674 53.9985C21.6209 54.0705 21.5712 54.1459 21.5186 54.2179C20.9114 55.0472 20.3292 55.8945 19.7728 56.7588C19.6637 56.9274 19.5518 57.0936 19.4449 57.2638C18.9936 57.9796 18.5738 58.7148 18.1567 59.4518H39.7716L59.7321 54.5206Z" fill="#BBBCBD"/>
<path d="M77.9801 52.888C78.0241 52.3219 78.0601 51.7563 78.0893 51.1897C78.1287 50.423 78.1555 49.6552 78.1704 48.888C78.1818 48.2922 78.1801 47.6958 78.1772 47.1C78.1772 46.928 78.1812 46.7561 78.1795 46.5836C78.1617 45.0451 78.1051 43.5074 78.0099 41.9718L77.9967 41.9632L77.991 41.9524C77.4199 41.6242 76.8481 41.2975 76.2755 40.9721L76.2355 40.9492L75.7882 40.6962L75.7802 40.6916L75.47 40.5179L75.4089 40.4837C75.334 40.4421 75.2588 40.4011 75.1832 40.3608C74.1896 39.8451 73.1759 39.3689 72.1447 38.9333C69.6865 37.8953 66.3754 36.9853 64.5103 36.546V39.9804L69.2135 54.515L69.2186 54.527C69.7042 54.9897 70.1218 55.5215 70.4566 56.1076V56.1082C70.5663 56.3001 70.6668 56.4984 70.7576 56.7012C70.7599 56.7057 70.7622 56.7097 70.7633 56.7137C70.8542 56.916 70.9342 57.1233 71.0044 57.3353L71.0101 57.3496C71.0798 57.5615 71.1398 57.7774 71.1889 57.9974L71.1935 58.0145C71.2426 58.2367 71.2809 58.4635 71.3083 58.6932C71.3083 58.6966 71.3095 58.7 71.31 58.7029C71.3369 58.9359 71.3523 59.173 71.3557 59.4129L71.3735 59.4518H77.1324C77.5188 57.3383 77.7966 55.2064 77.9647 53.0645C77.9687 53.0057 77.9756 52.9468 77.9801 52.888Z" fill="#E3DDDB"/>
<path d="M85.5124 47.749C85.5081 47.7559 85.505 47.7641 85.5012 47.771L85.5124 47.7496" fill="#FCB03F"/>
<path d="M59.7654 54.4916C60.0749 54.2016 60.4101 53.9402 60.7668 53.7107C61.1216 53.4826 61.4969 53.288 61.8876 53.1291C61.8979 53.1246 61.9088 53.1217 61.9185 53.1171C62.31 52.9598 62.7152 52.8389 63.129 52.7561L63.1735 52.7493C63.6014 52.6662 64.0362 52.6239 64.472 52.623C64.9244 52.623 65.3654 52.6687 65.7933 52.7527C65.8042 52.755 65.8145 52.7555 65.8253 52.7573C66.2541 52.8433 66.6736 52.9703 67.0781 53.1366C67.8714 53.4637 68.5972 53.9352 69.2186 54.527L69.2135 54.515L64.5103 39.9804L59.7654 54.4916Z" fill="#909393"/>
<path d="M58.0944 62.1129C57.9297 61.7118 57.8039 61.296 57.7185 60.8709C57.7162 60.8618 57.7157 60.8521 57.7145 60.8435C57.5807 60.1688 57.5491 59.4779 57.6208 58.7938C57.6265 58.7384 57.6385 58.6853 57.6454 58.6299C57.6688 58.4493 57.6939 58.2694 57.7305 58.0934C57.7414 58.0426 57.7579 57.9935 57.7688 57.9421C57.8111 57.7644 57.8556 57.5867 57.9105 57.4136C57.9225 57.3777 57.9373 57.3434 57.9499 57.3068C58.0127 57.1217 58.0801 56.9378 58.1584 56.7601C58.167 56.7395 58.1784 56.7201 58.1875 56.6996C58.2732 56.5076 58.3663 56.3191 58.4692 56.138L58.4817 56.1169C58.8187 55.5268 59.2399 54.9891 59.7322 54.5208L39.7717 59.4519H39.7334L59.5037 64.2774C58.9061 63.6552 58.4303 62.9267 58.1007 62.1294C58.0978 62.1243 58.0967 62.1186 58.0944 62.1129Z" fill="#676A6A"/>
<path d="M103.006 58.3732C103.018 58.2841 103.037 58.2007 103.053 58.1139C103.102 57.83 103.162 57.5535 103.238 57.2907C103.247 57.261 103.25 57.2273 103.26 57.1981L105.864 45.2725L105.863 38.4728C103.735 36.715 101.457 35.7542 99.0841 35.7542C96.0862 35.7542 93.291 37.4097 91.2007 39.4542C88.9134 41.6918 87.1459 44.507 85.7166 47.3479C85.6509 47.4787 85.5835 47.6044 85.5184 47.7358C85.9588 48.1174 86.3947 48.5041 86.8248 48.8977C87.7969 49.7902 88.7522 50.7008 89.6903 51.6289C90.1279 52.0608 90.5575 52.5018 90.9882 52.9411C91.4452 53.4067 91.9028 53.8711 92.3529 54.3441C93.1761 55.2088 93.9878 56.0845 94.7877 56.9708C95.4741 57.7278 96.153 58.4916 96.8242 59.2621L96.8254 59.2633C96.9379 59.3809 97.0167 59.4655 97.047 59.4998H102.921C102.921 59.4523 102.93 59.4089 102.931 59.3615C102.937 59.0222 102.96 58.6909 103.006 58.3732ZM85.5178 47.7672L85.5115 47.7495L85.5012 47.7689L85.5269 47.794C85.5241 47.785 85.5211 47.7761 85.5178 47.7672Z" fill="#E3DDDB"/>
<path d="M14.6156 66.9565L14.6682 66.8251C15.4569 64.7787 16.3664 62.7809 17.392 60.8423C17.5508 60.5407 17.7062 60.2379 17.8707 59.9392C17.9615 59.7741 18.0644 59.6164 18.1569 59.4519C18.5739 58.7149 18.9938 57.9797 19.4451 57.2639C19.5519 57.0931 19.6639 56.9275 19.773 56.7589C20.3293 55.8946 20.9115 55.0473 21.5188 54.218C21.5713 54.146 21.621 54.0706 21.6742 53.9986C22.3144 53.143 22.9816 52.308 23.6747 51.4947C23.8221 51.3211 23.9684 51.1463 24.118 50.9738C24.8049 50.1858 25.5169 49.4201 26.2528 48.6778C26.3979 48.5327 26.5459 48.3911 26.6921 48.2483C27.4707 47.4773 28.2769 46.7347 29.1091 46.022L29.1143 46.0169C32.3996 35.0121 43.008 28.2495 54.9022 28.2495C59.6894 28.2495 64.4503 29.6291 68.5303 32.1249C72.7154 34.6848 75.5688 37.1857 77.7842 41.5576L77.8173 41.6233C77.8733 41.7341 77.9361 41.8404 77.991 41.9524L77.9967 41.9632L78.0098 41.9718C79.8702 43.1229 81.6424 44.4109 83.3117 45.825C83.8733 46.2989 84.4241 46.7853 84.9638 47.284C85.1421 47.4473 85.3254 47.6027 85.5014 47.769C85.5048 47.7621 85.5076 47.7553 85.5117 47.749C85.5134 47.7443 85.5155 47.7397 85.5179 47.7353C85.5785 47.6113 85.6379 47.4851 85.699 47.3628C87.3751 36.7847 92.7004 31.0167 98.204 31.0167C102.352 31.0167 105.368 33.4903 107.646 40.1489L107.669 40.2203L107.675 40.2283C108.347 40.9609 108.974 41.7331 109.553 42.5408L109.552 42.5402C109.564 42.5562 109.576 42.571 109.588 42.5876L109.588 42.587L109.588 42.5876C109.621 42.6842 109.649 42.7836 109.68 42.8801V42.8795L109.594 42.5328C102.748 22.2632 83.5762 7.66974 60.9953 7.66974C32.6721 7.66974 9.71191 30.6299 9.71191 58.9531C9.71191 64.5367 10.6042 69.9123 12.2609 74.9142L12.2677 74.8851C12.8502 72.187 13.635 69.5367 14.6156 66.9565Z" fill="#525353"/>
<path d="M110.36 59.5198L108.572 61.521V61.5204L108.568 61.5336C108.5 61.7969 108.416 62.0425 108.324 62.2796C108.3 62.3419 108.274 62.4007 108.247 62.4613C108.179 62.6245 108.102 62.7841 108.017 62.9394C107.973 63.0206 107.93 63.1028 107.882 63.1788C107.808 63.2976 107.728 63.4056 107.647 63.5118C107.535 63.6587 107.411 63.7961 107.277 63.9226C107.224 63.9723 107.172 64.0265 107.116 64.0711C106.982 64.1776 106.837 64.2694 106.683 64.3447C106.427 64.4699 106.158 64.543 105.878 64.543C104.252 64.543 102.934 62.2853 102.934 59.4999H97.0293L97.0327 59.5044C98.1421 60.7867 99.2341 62.084 100.308 63.3959C101.341 64.6573 102.36 65.9292 103.367 67.2114L103.515 67.3993C104.469 68.617 105.415 69.8414 106.351 71.0725L106.624 71.429C107.619 72.7386 108.608 74.0531 109.59 75.3724C111.318 70.2566 112.226 64.8995 112.279 59.4999L110.619 59.437L110.36 59.5198Z" fill="white"/>
<path d="M53.2045 35.8353C53.3381 35.825 53.4718 35.817 53.6049 35.8079C54.5249 35.7427 55.4469 35.7088 56.3693 35.7062C59.1502 35.7062 61.8671 36.0038 64.5098 36.546H64.5103C66.3755 36.9853 69.6866 37.8953 72.1447 38.9333C73.176 39.3689 74.1896 39.8452 75.1833 40.3608L75.4089 40.4837L75.47 40.5179C75.562 40.5694 75.6626 40.6248 75.7802 40.6916L75.7882 40.6962L76.2355 40.9492L76.2755 40.9721C76.9073 41.3303 77.6066 41.7319 77.8739 41.885L77.9425 41.9244L77.991 41.9524C77.9362 41.8404 77.8733 41.7342 77.8174 41.6233L77.7842 41.5576C75.5689 37.1858 72.1584 33.436 67.9733 30.8762C63.8934 28.3803 59.1325 27.0007 54.3447 27.0007C42.451 27.0007 32.3996 35.0121 29.1143 46.0169C32.2248 43.3611 35.6849 41.1212 39.409 39.4205C43.7517 37.4383 48.4418 36.1969 53.2045 35.8353Z" fill="black"/>
<path d="M109.588 42.5876L109.587 42.5871L109.588 42.5876C109.576 42.5711 109.563 42.5562 109.551 42.5402L109.553 42.5408C108.973 41.7332 108.346 40.961 107.675 40.2283L107.658 40.2083C107.372 39.8976 107.077 39.5957 106.772 39.3029C106.66 39.1949 106.543 39.1007 106.429 38.9973C106.241 38.8265 106.055 38.6499 105.864 38.4934V45.2966L108.468 57.2234V57.2228C108.497 57.3154 108.531 57.4022 108.556 57.4982L110.36 59.5199L110.378 59.4999H112.266C112.268 59.3251 112.279 59.1525 112.279 58.9772V58.9743C112.278 53.505 111.401 48.0711 109.68 42.8796V42.8801C109.648 42.7836 109.621 42.6842 109.588 42.5876Z" fill="#BBBCBD"/>
<path d="M91.2007 39.4542C93.291 37.4097 96.0862 35.7542 99.0842 35.7542C101.457 35.7542 103.735 36.715 105.863 38.4728L105.864 38.4934V38.4968V38.4934C106.055 38.6499 106.242 38.8264 106.429 38.9972C106.543 39.1006 106.66 39.1949 106.772 39.3029C107.077 39.5956 107.372 39.8976 107.658 40.2083L107.675 40.2283C107.673 40.2258 107.672 40.2235 107.67 40.2215L107.669 40.2209L107.646 40.1489C105.368 33.4902 101.693 29.1641 97.5458 29.1641C92.0416 29.1641 87.375 36.7847 85.6989 47.3628L85.7166 47.348C87.1459 44.5071 88.9134 41.6919 91.2007 39.4542ZM83.7635 104.468C83.7635 104.468 83.0225 103.88 82.0817 102.798C81.6439 102.297 81.2359 101.771 80.8597 101.223C80.7398 101.048 80.6209 100.866 80.5027 100.679C80.1468 100.116 79.8629 99.4313 79.5498 98.7543C79.1876 97.9706 79.1865 97.449 78.9786 96.7189C78.8256 96.1813 78.7041 95.6352 78.6147 95.0834C78.4703 94.1907 78.4124 93.2862 78.4416 92.3825C78.4576 91.8609 78.5113 91.321 78.5895 90.7715C78.6672 90.2257 78.7735 89.6844 78.9077 89.1497C79.3225 87.4913 80.0394 85.7249 81.1579 83.8603L81.4424 83.2217C81.808 82.6127 81.8891 82.6395 82.2365 82.0529C87.1288 73.7964 89.768 67.553 88.477 57.9398C88.3354 56.9549 88.1746 55.9729 87.9948 54.9944C87.8823 55.7036 87.7633 56.4118 87.6378 57.1189C87.5892 57.3382 87.4561 57.5765 87.4058 57.7256C85.2807 64.0152 81.9354 68.6419 77.122 73.8661C76.4518 74.5906 75.7734 75.3076 75.0871 76.0169C73.8612 77.2843 72.6224 78.5392 71.371 79.7815C70.85 80.2996 70.3188 80.8252 69.7784 81.361C69.2819 81.8523 68.6644 82.9029 67.9275 83.677C67.4727 84.9503 66.9557 86.3865 66.5187 87.8969C66.3216 87.822 66.1337 87.7552 65.9332 87.6775C56.5827 84.0608 50.3223 79.2285 50.3223 79.2285C50.3223 79.2285 55.1392 85.5004 63.2545 91.3879C64.0006 91.9286 64.7746 92.4297 65.5733 92.8892C65.2385 98.1882 67.5761 103.275 78.1279 104.793C79.912 105.049 81.7389 105.037 83.5789 104.83C83.5607 104.775 83.6818 104.776 83.6721 104.746C83.6618 104.715 83.7703 104.634 83.7703 104.634" fill="black"/>
<path d="M78.1195 90.8274C87.4871 92.3389 101.351 92.091 115.743 85.3524C116.09 85.1901 116.472 85.6174 116.819 85.4472C116.819 85.4472 106.983 95.494 95.2351 101.174C94.8918 101.34 94.553 101.516 94.2062 101.674C93.0711 102.193 91.9166 102.644 90.7575 103.062C88.4845 103.878 86.1812 104.498 83.8944 104.784C83.7893 104.798 83.6842 104.818 83.5791 104.83C83.5646 104.786 83.5503 104.743 83.5362 104.7L83.5208 104.652C83.5208 104.652 82.7793 104.065 81.8384 102.982C81.4003 102.482 80.9925 101.956 80.6171 101.407C80.0928 100.646 79.6339 99.8411 79.2455 99.0021C78.9172 98.2938 78.6446 97.5609 78.4303 96.8102C78.0272 95.4014 77.8458 93.9384 77.8927 92.4737C77.9124 91.9344 77.9618 91.3966 78.0407 90.8628L78.1195 90.8274Z" fill="#9F2254"/>
<path d="M71.4056 80.1624C72.6573 78.9203 73.8962 77.6653 75.1222 76.3978C75.8084 75.6884 76.4867 74.9714 77.1571 74.247C81.97 69.0228 85.5032 64.1339 87.6289 57.8443C87.6786 57.6952 87.7289 57.4987 87.7774 57.2776L87.8003 57.1754C87.85 56.9406 87.8985 56.6795 87.9471 56.3853C87.9665 56.1825 88.6023 55.7735 88.62 55.5833C88.087 52.8446 86.8588 49.9655 85.5181 47.7673C85.5214 47.7761 85.5244 47.7851 85.5272 47.7941L85.5015 47.769C85.3256 47.6027 85.1422 47.4474 84.9639 47.284C84.4242 46.7853 83.8734 46.2989 83.3119 45.825C81.6425 44.411 79.8703 43.1231 78.01 41.9718C78.1036 43.5108 78.1636 45.0481 78.1796 46.5836C78.1819 46.7561 78.1773 46.9281 78.1773 47.1C78.1802 47.6959 78.1819 48.2923 78.1705 48.8881C78.1557 49.6557 78.1287 50.423 78.0894 51.1897C78.0602 51.7564 78.0242 52.3219 77.9803 52.8881C77.9757 52.9469 77.9688 53.0057 77.9648 53.0646C77.7967 55.2065 77.5189 57.3384 77.1325 59.4519L76.4561 62.6504C75.0434 68.3778 72.1739 73.5729 69.8146 78.9371C69.1891 80.3595 68.5955 81.7979 68.0751 83.2632L67.9277 83.6768C68.5472 83.0232 69.1756 82.3782 69.8129 81.742C70.3539 81.2067 70.8852 80.6805 71.4056 80.1624Z" fill="#FCB03F"/>
<path d="M40.4498 110.967C43.8825 109.448 47.0593 108.495 50.8354 107.75C50.8166 106.933 50.7739 106.116 50.7074 105.301C52.3205 101.125 53.808 96.902 55.1678 92.6371C52.7622 92.8714 50.3717 93.2408 48.0076 93.7436C46.2556 94.1155 44.5269 94.5828 42.8126 95.0992C41.4352 95.514 40.0762 95.9904 38.728 96.4971L44.0585 97.7882L39.7694 111.251L40.4498 110.967Z" fill="#525353"/>
<path d="M106.351 71.0725C105.415 69.8414 104.469 68.617 103.515 67.3993L103.367 67.2113C102.348 65.9133 101.316 64.6258 100.27 63.349C99.2082 62.0531 98.129 60.7714 97.0327 59.5044C96.9636 59.4239 96.8945 59.3422 96.8242 59.2622C95.9208 58.2246 95.0037 57.1991 94.073 56.186C93.5054 55.5667 92.932 54.9528 92.3529 54.3442C91.9016 53.873 91.4467 53.4053 90.9882 52.9412C90.5575 52.5019 90.1279 52.0609 89.6903 51.629C88.7519 50.7011 87.7966 49.7906 86.8248 48.8978C86.3943 48.5046 85.9586 48.117 85.5178 47.7353C85.5153 47.7397 85.5132 47.7443 85.5115 47.749C86.4381 50.4122 87.4955 53.1086 88.0251 55.8861C88.1627 56.6087 88.2764 57.3113 88.369 57.998C89.66 67.6106 86.5798 73.8871 81.688 82.1435C81.3299 82.7469 80.9702 83.3494 80.6089 83.951C79.4904 85.8167 78.774 87.5825 78.3587 89.2409C78.2247 89.7756 78.1185 90.317 78.0405 90.8627C87.6337 92.4108 102.059 92.6993 116.819 85.4471C116.819 85.4471 113.924 81.1929 109.569 75.3449C108.594 74.0348 107.612 72.7295 106.624 71.4289C106.534 71.3095 106.442 71.1907 106.351 71.0725Z" fill="#DF0067"/>
<path d="M39.2598 113.657L44.0585 97.7882L38.728 96.4971C37.534 96.9456 36.351 97.4237 35.1833 97.9436L30.4309 113.657L35.7363 113.74L39.2598 113.657Z" fill="#AA9678"/>
<path d="M42.6333 106.791C43.1018 106.971 43.5782 107.133 44.0535 107.3C49.4978 109.21 55.2262 110.185 60.996 110.183C67.5596 110.187 74.0624 108.926 80.1493 106.471C80.4624 106.345 80.7691 106.207 81.0788 106.075C81.5809 105.862 82.0797 105.641 82.5749 105.412C83.0171 105.206 83.4592 105.002 83.8945 104.784C83.7894 104.798 83.6843 104.818 83.5792 104.83C81.7392 105.037 79.9123 105.049 78.1282 104.792C67.5764 103.275 65.2388 98.188 65.5735 92.889C64.7749 92.4295 64.0009 91.9284 63.2548 91.3877C55.1394 85.5003 50.3225 79.2284 50.3225 79.2284C50.3225 79.2284 56.583 84.0607 65.9334 87.6774C66.134 87.7551 66.3219 87.8219 66.519 87.8967C66.956 86.3863 67.473 84.9502 67.9277 83.6768L68.0751 83.2632C68.5955 81.7979 69.1891 80.3595 69.8146 78.9371C72.1739 73.5729 75.0434 68.3778 76.4561 62.6503L77.1325 59.4518H71.3616L71.361 59.4524L71.3616 59.4638L71.3593 59.465C71.3593 59.4804 71.3616 59.4958 71.3616 59.5124C71.3629 60.8851 70.9531 62.2268 70.1848 63.3644C69.436 64.4709 68.3834 65.3374 67.1537 65.8597C66.0825 66.3131 64.9136 66.4866 63.7569 66.3641C63.7015 66.3584 63.6484 66.3464 63.5935 66.3396C63.413 66.3161 63.2336 66.2916 63.0594 66.2556C63.0103 66.2447 62.9634 66.2293 62.9149 66.2179C62.7355 66.1768 62.5561 66.1322 62.3825 66.0768C62.3505 66.0659 62.3196 66.0528 62.2876 66.0419C62.0997 65.9785 61.9129 65.9105 61.7324 65.8317C61.7158 65.8249 61.7004 65.8163 61.6844 65.8089C61.4897 65.7229 61.2991 65.628 61.1131 65.5244L61.1045 65.5192C60.5132 65.1856 59.974 64.7672 59.5039 64.2773L39.7336 59.4518H18.157C18.0644 59.6164 17.9616 59.774 17.8708 59.9391C17.7062 60.2379 17.5509 60.5412 17.3921 60.8423C16.8618 61.8439 16.3627 62.8616 15.8953 63.894C15.4584 64.8591 15.0492 65.8365 14.6683 66.8251L14.6157 66.9565C13.6351 69.5367 12.8503 72.187 12.2678 74.8851C15.6646 85.2455 22.2735 94.1481 30.9127 100.423C31.1641 100.605 31.4291 100.767 31.6839 100.946C33.1459 101.972 34.6604 102.921 36.2215 103.79C38.2863 104.938 40.4288 105.941 42.6333 106.791Z" fill="white"/>
<path d="M94.3666 119.056C94.2283 117.685 94.1566 116.308 94.1518 114.929C94.1518 114.528 93.9925 114.143 93.7088 113.86C93.4251 113.576 93.0404 113.416 92.6391 113.416H29.165C28.7637 113.416 28.3788 113.576 28.0951 113.86C27.8113 114.143 27.6518 114.528 27.6517 114.929C27.6517 116.319 27.57 117.693 27.4369 119.056C27.2889 120.554 27.0603 122.043 26.752 123.517C27.6723 124.003 28.6 124.477 29.5437 124.926C30.1748 122.172 30.5444 119.364 30.6474 116.541C30.6491 116.508 30.6525 116.475 30.6537 116.443H91.1504C91.1516 116.475 91.155 116.508 91.1561 116.541C91.2596 119.364 91.6293 122.172 92.2604 124.926C93.2008 124.476 94.1316 124.006 95.0521 123.517C94.7439 122.043 94.5151 120.554 94.3666 119.056Z" fill="#8B7460"/>
</g>
</g>
</g>
<defs>
<filter id="filter0_d_208_95" x="0.851562" y="0.67157" width="121.808" height="121.808" filterUnits="userSpaceOnUse" color-interpolation-filters="sRGB">
<feFlood flood-opacity="0" result="BackgroundImageFix"/>
<feColorMatrix in="SourceAlpha" type="matrix" values="0 0 0 0 0 0 0 0 0 0 0 0 0 0 0 0 0 0 127 0" result="hardAlpha"/>
<feOffset dy="3"/>
<feGaussianBlur stdDeviation="2"/>
<feComposite in2="hardAlpha" operator="out"/>
<feColorMatrix type="matrix" values="0 0 0 0 0 0 0 0 0 0 0 0 0 0 0 0 0 0 0.05 0"/>
<feBlend mode="normal" in2="BackgroundImageFix" result="effect1_dropShadow_208_95"/>
<feBlend mode="normal" in="SourceGraphic" in2="effect1_dropShadow_208_95" result="shape"/>
</filter>
<clipPath id="clip0_208_95">
<rect width="146.243" height="146.243" fill="white" transform="translate(-12.2195 -14.2616)"/>
</clipPath>
</defs>
</svg>
