<svg id="Laag_1" data-name="Laag 1" xmlns="http://www.w3.org/2000/svg" viewBox="0 0 24.5 27.8"><defs><style>.cls-1{fill:#8db849;}.cls-2{fill:#5a863e;}.cls-3{fill:#fffffe;}</style></defs><path class="cls-1" d="M11.86,1.3c.2,0,.3.1.5.2-1.2.5-2.4,1.8-3,4.6l-2.2.6C7.86,4.7,9.26,1.3,11.86,1.3Zm1.1,1a7,7,0,0,1,.4,2.4v.2l-2.9.8C11.06,3.6,12.06,2.7,13,2.3Zm2.6,1.8-1.3.4V4.2A6.87,6.87,0,0,0,14,2,3,3,0,0,1,15.56,4.1Zm6.5,1.6a.22.22,0,0,0-.2-.2c-.2,0-2.3-.2-2.3-.2s-1.5-1.5-1.7-1.6-.5-.1-.6-.1-.3.1-.8.3c-.5-1.4-1.4-2.7-2.9-2.7h-.1A1.77,1.77,0,0,0,12,.4c-3.6-.1-5.3,4.4-5.9,6.7-.8.2-1.6.5-2.5.8s-.8.3-.9,1c-.1.5-2.1,16.3-2.1,16.3l15.9,3,8.6-1.9S22.06,5.9,22.06,5.7Z" transform="translate(-0.56 -0.4)"/><path class="cls-2" d="M21.76,5.5l-2.2-.2s-1.5-1.5-1.7-1.6-.1-.1-.2-.1l-1.2,24.6,8.6-1.9s-3-20.4-3-20.6-.2-.2-.3-.2" transform="translate(-0.56 -0.4)"/><path class="cls-3" d="M13.56,10.3l-1.1,3.2a4.74,4.74,0,0,0-2.1-.5c-1.7,0-1.8,1-1.8,1.3,0,1.4,3.8,2,3.8,5.4,0,2.7-1.7,4.4-4,4.4a5.5,5.5,0,0,1-4.1-1.7L5,20a5.1,5.1,0,0,0,2.6,1.2,1,1,0,0,0,1.1-1.1c0-1.9-3.1-2-3.1-5.1,0-2.6,1.9-5.1,5.6-5.1a4,4,0,0,1,2.4.4" transform="translate(-0.56 -0.4)"/></svg>