<svg width="123" height="122" viewBox="0 0 123 122" fill="none" xmlns="http://www.w3.org/2000/svg">
<g filter="url(#filter0_d_207_147)">
<path d="M4.3324 23.9246C4.3324 11.3537 14.5231 1.16302 27.094 1.16302H95.3788C107.95 1.16302 118.14 11.3537 118.14 23.9246V92.2094C118.14 104.78 107.95 114.971 95.3788 114.971H27.094C14.5231 114.971 4.3324 104.78 4.3324 92.2094V23.9246Z" fill="#F2F2F2"/>
<g clip-path="url(#clip0_207_147)">
<path d="M66.4959 45.4493C65.1692 46.1127 64.5943 47.3509 64.5943 50.7119C64.5943 50.7119 65.2577 50.0485 66.319 49.6505C67.0929 49.3631 67.6457 48.9872 68.0437 48.6997C69.1935 47.8374 69.3704 46.7981 69.3704 44.985C69.3483 44.985 67.5352 44.8744 66.4959 45.4493Z" fill="#FBBD71"/>
<path d="M58.381 46.2233C57.2312 47.1741 56.9437 48.8103 56.9437 48.8103L53.229 63.0502L50.1776 51.3974C49.8901 50.1591 49.3152 48.6334 48.4528 47.5721C47.3915 46.2233 45.1803 46.1348 44.915 46.1348C44.716 46.1348 42.5269 46.2233 41.3771 47.5721C40.5148 48.6334 39.9399 50.1591 39.6524 51.3974L36.7779 63.0502L33.0631 48.8103C33.0631 48.8103 32.7757 47.2846 31.6259 46.2233C29.8127 44.587 27.1372 44.985 27.1372 44.985L34.2129 71.6296C34.2129 71.6296 36.5125 71.8286 37.6624 71.2537C39.1881 70.4798 39.962 69.927 40.8243 66.2785C41.6867 63.0281 43.9863 53.5643 44.1632 52.901C44.2516 52.6135 44.4506 51.7512 45.0255 51.7512C45.6004 51.7512 45.7994 52.5251 45.8879 52.901C46.0869 53.5643 48.3644 63.0281 49.2268 66.2785C50.1776 69.9049 50.8409 70.4798 52.3887 71.2537C53.5385 71.8286 55.8381 71.6296 55.8381 71.6296L62.8696 44.985C62.8696 44.985 60.1941 44.6091 58.381 46.2233ZM69.3484 49.2747C69.3484 49.2747 68.8619 49.938 67.9111 50.5129C67.2477 50.8888 66.6728 51.0878 66.0095 51.4637C64.8597 52.0386 64.5722 52.6135 64.5722 53.4759V71.5411C64.5722 71.5411 66.3854 71.7401 67.5352 71.1652C69.0609 70.3913 69.3484 69.6395 69.3484 66.3891V50.336V49.2747ZM86.9271 58.3626L95.9045 45.0735C95.9045 45.0735 92.1897 44.4101 90.266 46.1348C89.0277 47.1962 87.7895 49.1862 87.7895 49.1862L84.5391 53.9623C84.3401 54.2498 84.1632 54.4488 83.8757 54.4488C83.5883 54.4488 83.3008 54.1614 83.2124 53.9623L79.962 49.1862C79.962 49.1862 78.6353 47.2846 77.4854 46.1348C75.5838 44.4101 71.847 45.0735 71.847 45.0735L80.5369 58.3405L71.648 71.6075C71.648 71.6075 75.5617 72.0939 77.4854 70.3692C78.7237 69.3078 79.8735 67.4947 79.8735 67.4947L83.1239 62.7186C83.3229 62.4311 83.4998 62.2321 83.7873 62.2321C84.0747 62.2321 84.3622 62.5196 84.4506 62.7186L87.701 67.4947C87.701 67.4947 88.9393 69.3078 90.0891 70.3692C91.9907 72.0939 95.816 71.6075 95.816 71.6075L86.9271 58.3626Z" fill="black"/>
</g>
</g>
<defs>
<filter id="filter0_d_207_147" x="0.332397" y="0.163025" width="121.808" height="121.808" filterUnits="userSpaceOnUse" color-interpolation-filters="sRGB">
<feFlood flood-opacity="0" result="BackgroundImageFix"/>
<feColorMatrix in="SourceAlpha" type="matrix" values="0 0 0 0 0 0 0 0 0 0 0 0 0 0 0 0 0 0 127 0" result="hardAlpha"/>
<feOffset dy="3"/>
<feGaussianBlur stdDeviation="2"/>
<feComposite in2="hardAlpha" operator="out"/>
<feColorMatrix type="matrix" values="0 0 0 0 0 0 0 0 0 0 0 0 0 0 0 0 0 0 0.05 0"/>
<feBlend mode="normal" in2="BackgroundImageFix" result="effect1_dropShadow_207_147"/>
<feBlend mode="normal" in="SourceGraphic" in2="effect1_dropShadow_207_147" result="shape"/>
</filter>
<clipPath id="clip0_207_147">
<rect width="71.13" height="27.6838" fill="white" transform="translate(25.9558 44.4101)"/>
</clipPath>
</defs>
</svg>
