<svg width="123" height="123" viewBox="0 0 123 123" fill="none" xmlns="http://www.w3.org/2000/svg">
<g filter="url(#filter0_d_207_94)">
<path d="M4.97314 24.6221C4.97314 12.0512 15.1639 1.86047 27.7347 1.86047H96.0195C108.59 1.86047 118.781 12.0512 118.781 24.6221V92.9069C118.781 105.478 108.59 115.668 96.0195 115.668H27.7347C15.1639 115.668 4.97314 105.478 4.97314 92.9069V24.6221Z" fill="#00749A"/>
<g clip-path="url(#clip0_207_94)">
<path d="M31.6522 59.0482C31.6522 71.1252 38.6704 81.5611 48.8474 86.5074L34.2937 46.6315C32.5491 50.5383 31.6489 54.7695 31.6522 59.0482ZM82.7587 57.5086C82.7587 53.738 81.4043 51.1267 80.2426 49.0942C78.696 46.581 77.247 44.4527 77.247 41.9396C77.247 39.1349 79.3735 36.5242 82.3697 36.5242C82.505 36.5242 82.6333 36.5411 82.7657 36.5486C77.337 31.5757 70.1052 28.5394 62.1621 28.5394C51.5034 28.5394 42.1258 34.0082 36.6705 42.2914C37.3863 42.3128 38.0614 42.3274 38.6339 42.3274C41.8251 42.3274 46.765 41.9401 46.765 41.9401C48.4096 41.8432 48.6035 44.2588 46.9612 44.4533C46.9612 44.4533 45.3078 44.6478 43.4686 44.7442L54.5791 77.7916L61.2565 57.7669L56.5024 44.7436C54.8595 44.6472 53.303 44.4527 53.303 44.4527C51.6589 44.3564 51.8517 41.8426 53.4958 41.9396C53.4958 41.9396 58.5343 42.3268 61.5323 42.3268C64.7229 42.3268 69.6634 41.9396 69.6634 41.9396C71.3092 41.8426 71.5025 44.2582 69.859 44.4527C69.859 44.4527 68.2027 44.6472 66.367 44.7436L77.3927 77.5408L80.4354 67.3715C81.7549 63.1515 82.7587 60.1205 82.7587 57.5086Z" fill="white"/>
<path d="M62.6974 61.7169L53.5433 88.3162C56.342 89.141 59.2445 89.5598 62.1621 89.5598C65.715 89.5598 69.1222 88.945 72.2937 87.8303C72.2087 87.6972 72.136 87.5565 72.0766 87.41L62.6974 61.7169ZM88.9333 44.4103C89.0645 45.3821 89.1388 46.4259 89.1388 47.5475C89.1388 50.6436 88.5606 54.1239 86.819 58.4757L77.4995 85.4205C86.5699 80.1311 92.6708 70.3043 92.6708 59.0481C92.679 53.9318 91.3933 48.8964 88.9333 44.4103Z" fill="white"/>
<path d="M62.1636 23.484C42.5534 23.484 26.5983 39.4379 26.5983 59.0481C26.5983 78.6607 42.5528 94.6146 62.1636 94.6146C81.7732 94.6146 97.7306 78.6612 97.7306 59.0481C97.73 39.4379 81.7732 23.484 62.1636 23.484ZM62.1636 92.9838C43.4526 92.9838 28.229 77.7602 28.229 59.0481C28.229 40.3378 43.452 25.1153 62.1636 25.1153C80.8739 25.1153 96.0964 40.3378 96.0964 59.0481C96.0964 77.7602 80.8733 92.9838 62.1636 92.9838Z" fill="white"/>
</g>
</g>
<defs>
<filter id="filter0_d_207_94" x="0.973145" y="0.860474" width="121.808" height="121.808" filterUnits="userSpaceOnUse" color-interpolation-filters="sRGB">
<feFlood flood-opacity="0" result="BackgroundImageFix"/>
<feColorMatrix in="SourceAlpha" type="matrix" values="0 0 0 0 0 0 0 0 0 0 0 0 0 0 0 0 0 0 127 0" result="hardAlpha"/>
<feOffset dy="3"/>
<feGaussianBlur stdDeviation="2"/>
<feComposite in2="hardAlpha" operator="out"/>
<feColorMatrix type="matrix" values="0 0 0 0 0 0 0 0 0 0 0 0 0 0 0 0 0 0 0.05 0"/>
<feBlend mode="normal" in2="BackgroundImageFix" result="effect1_dropShadow_207_94"/>
<feBlend mode="normal" in="SourceGraphic" in2="effect1_dropShadow_207_94" result="shape"/>
</filter>
<clipPath id="clip0_207_94">
<rect width="71.13" height="71.13" fill="white" transform="translate(26.5966 23.484)"/>
</clipPath>
</defs>
</svg>
